<?xml version="1.0" encoding="utf-8"?>
<!-- Generator: Adobe Illustrator 15.0.0, SVG Export Plug-In . SVG Version: 6.00 Build 0)  -->
<!DOCTYPE svg PUBLIC "-//W3C//DTD SVG 1.1//EN" "http://www.w3.org/Graphics/SVG/1.1/DTD/svg11.dtd">
<svg version="1.1" id="Layer_1" xmlns="http://www.w3.org/2000/svg" xmlns:xlink="http://www.w3.org/1999/xlink" x="0px" y="0px"
	 width="215px" height="130px" viewBox="0 0 215 130" enable-background="new 0 0 215 130" xml:space="preserve">
<path fill="#0D4689" d="M100.691,58.291c26.666,17.58,40.663-20.879,10.958-30.943l-0.364,0.513
	c6.973,3.621,12.812,12.47,11.293,20.97c-1.396,7.889-9.931,13.065-21.519,8.729L100.691,58.291"/>
<path d="M74.269,63.429l7.84-3.592c13.744,13.861,36.309,18.602,49.489,7.611l0.54,0.306
	C127.626,74.384,103.574,86.96,74.269,63.429"/>
<path fill="#0D4689" d="M86.204,39.41l15.591-31.838c6.364,0.633,21.05,5.536,30.281,15.212c6.736,7.064,9.842,17.68,8.24,26.075
	l-0.646,0.027c0.92-15.019-13.819-31.841-34.646-33.794L86.992,39.622L86.204,39.41"/>
<path fill="#0D4689" d="M7.472,122.387h17.517c12.186,0,21.599-6.938,21.599-19.567c0-10.884-7.372-17.469-19.561-17.469H7.472
	v1.663c2.408,0.162,4.222,0.426,4.44,1.372c0.213,1.004,0.213,1.807,0.213,3.228v24.519c0,1.424,0,2.214-0.213,3.222
	c-0.218,0.955-2.033,1.214-4.44,1.373V122.387 M19.671,87.128h3.92c9.717,0,14.875,5.707,14.875,15.742
	c0,13.305-6.286,17.748-13.905,17.748c-4.138,0-4.89-0.367-4.89-5.806V87.128z"/>
<path fill="#0D4689" d="M64.323,123.039c8.665,0,15.135-6.144,15.135-14.255c0-8.529-6.686-13.513-13.91-13.513
	c-10.955,0-15.125,8.534-15.125,14.257C50.423,117.374,56.299,123.039,64.323,123.039 M64.695,97.12
	c5.942,0,7.222,8.692,7.222,12.933c0,8.381-3.424,11.137-6.369,11.137c-3.052,0-7.593-2.12-7.593-12.725
	C57.955,100.829,60.903,97.12,64.695,97.12z"/>
<path fill="#0D4689" d="M93.472,116.167c0,1.426,0,2.227,0.213,3.237c0.224,0.944,2.041,1.208,3.549,1.365v1.623H82.177v-1.623
	c1.875-0.157,3.746-0.421,3.959-1.365c0.21-1.011,0.21-1.812,0.21-3.237v-13.979c0-2.646-1.387-3.022-4.169-3.022v-1.628
	c3.637-0.062,8.293-0.697,11.188-2.267l0.106,0.101v4.355h0.115c1.923-2.445,5.685-4.456,10.028-4.456
	c3.91,0,5.356,1.586,7.337,4.456c2.089-2.445,5.635-4.456,9.985-4.456c5.84,0,7.494,4.03,7.494,9.384v11.512
	c0,1.42,0,2.227,0.216,3.232c0.213,0.949,2.088,1.213,3.961,1.37v1.623h-15.056v-1.623c1.504-0.157,3.331-0.421,3.541-1.37
	c0.219-1.006,0.219-1.812,0.219-3.232v-10.123c0-3.98-0.282-7.378-4.454-7.378c-3.333,0-5.906,1.807-5.906,10.805v6.696
	c0,1.42,0,2.227,0.221,3.232c0.208,0.949,2.03,1.213,3.531,1.37v1.623H100.07v-1.623c1.445-0.157,3.33-0.421,3.545-1.37
	c0.213-1.006,0.213-1.812,0.213-3.232v-10.123c0-3.98-0.27-7.378-4.406-7.378c-3.267,0-5.95,1.594-5.95,10.805V116.167"/>
<path fill="#0D4689" d="M152.542,99.646h-7.066v14.643c0,3.669,1.521,5.119,3.485,5.119c1.245,0,2.386-0.213,3.36-0.599l0.553,1.461
	c-2.512,1.556-5.598,2.737-8.045,2.737c-2.621,0-6.48-1.554-6.48-6.662V99.646h-4.135v-2.488h4.353l-0.213-5.956l7.122-3.738v9.694
	h7.066V99.646"/>
<path fill="#0D4689" d="M197.647,100.778c0.851-1.282,3.714-5.826,9.824-4.416l-2.074,6.443c-2.217-1.287-7.604-1.87-7.745,2.831
	l-0.109,3.107v7.417c0,1.421,0,2.217,0.208,3.228c0.213,0.944,2.03,1.208,4.44,1.364v1.629h-15.949v-1.629
	c1.87-0.156,3.737-0.42,3.964-1.364c0.213-1.011,0.213-1.807,0.213-3.228v-13.973c0-2.668-1.402-3.043-4.177-3.043v-1.629
	c3.637-0.053,8.303-0.687,11.2-2.271l0.101,0.106v5.427H197.647"/>
<path fill="#0D4689" d="M171.95,106.692c-5.366,1.688-9.126,2.978-9.126,7.939c0,2.389,1.229,4.353,3.647,4.353
	c3.11,0,5.479-2.501,5.479-7.415V106.692 M161.366,103.421l-4.728-1.442c1.373-3.69,4.443-6.766,11.663-6.723
	c7.662,0.04,10.77,3.437,10.77,9.316l-0.023,10.796c0,3.281,0.974,4.039,1.788,4.252c0.822,0.213,1.91,0.266,2.674,0.157
	l0.215,1.622c-1.904,0.804-4.948,1.607-7.449,1.607c-2.396,0-3.262-1.399-4.025-3.174c-0.167-0.487-0.194-0.487-0.263-0.742
	c-3.185,3.158-6.864,3.938-9.535,3.938c-3.752,0-6.75-2.924-6.75-7.404c0-5.071,3.315-6.71,8.508-8.572l7.682-2.532
	c0-4.34-1.389-7.399-4.499-7.415C163.705,97.086,161.981,102.184,161.366,103.421z"/>
<path fill="#0D4689" d="M100.691,58.294c26.666,17.58,40.663-20.88,10.958-30.944l-0.364,0.514
	c6.973,3.621,12.812,12.47,11.293,20.97c-1.396,7.891-9.931,13.065-21.519,8.729L100.691,58.294"/>
<path fill="#52AD32" d="M74.269,63.431l7.84-3.591c13.744,13.86,36.309,18.602,49.489,7.611l0.54,0.306
	C127.626,74.387,103.574,86.963,74.269,63.431"/>
<path fill="#0D4689" d="M86.204,39.412l15.591-31.837c6.364,0.633,21.05,5.536,30.281,15.212c6.736,7.063,9.842,17.679,8.24,26.075
	l-0.646,0.029c0.92-15.021-13.819-31.843-34.646-33.796L86.992,39.625L86.204,39.412"/>
<path fill="#0D4689" d="M7.472,122.39h17.517c12.186,0,21.599-6.938,21.599-19.568c0-10.884-7.372-17.468-19.561-17.468H7.472v1.662
	c2.408,0.163,4.222,0.426,4.44,1.373c0.213,1.003,0.213,1.807,0.213,3.228v24.519c0,1.423,0,2.214-0.213,3.222
	c-0.218,0.955-2.033,1.213-4.44,1.373V122.39 M19.671,87.13h3.92c9.717,0,14.875,5.707,14.875,15.742
	c0,13.306-6.286,17.748-13.905,17.748c-4.138,0-4.89-0.367-4.89-5.805V87.13z"/>
<path fill="#0D4689" d="M64.323,123.041c8.665,0,15.135-6.143,15.135-14.255c0-8.529-6.686-13.512-13.91-13.512
	c-10.955,0-15.125,8.534-15.125,14.257C50.423,117.377,56.299,123.041,64.323,123.041 M64.695,97.123
	c5.942,0,7.222,8.691,7.222,12.933c0,8.381-3.424,11.137-6.369,11.137c-3.052,0-7.593-2.12-7.593-12.725
	C57.955,100.832,60.903,97.123,64.695,97.123z"/>
<path fill="#0D4689" d="M93.472,116.169c0,1.427,0,2.228,0.213,3.238c0.224,0.944,2.041,1.208,3.549,1.365v1.622H82.177v-1.622
	c1.875-0.157,3.746-0.421,3.959-1.365c0.21-1.011,0.21-1.812,0.21-3.238v-13.978c0-2.647-1.387-3.022-4.169-3.022v-1.628
	c3.637-0.062,8.293-0.697,11.188-2.267l0.106,0.101v4.355h0.115c1.923-2.445,5.685-4.456,10.028-4.456
	c3.91,0,5.356,1.585,7.337,4.456c2.089-2.445,5.635-4.456,9.985-4.456c5.84,0,7.494,4.03,7.494,9.383v11.512
	c0,1.421,0,2.228,0.216,3.232c0.213,0.95,2.088,1.214,3.961,1.371v1.622h-15.056v-1.622c1.504-0.157,3.331-0.421,3.541-1.371
	c0.219-1.005,0.219-1.812,0.219-3.232v-10.123c0-3.979-0.282-7.377-4.454-7.377c-3.333,0-5.906,1.807-5.906,10.804v6.696
	c0,1.421,0,2.228,0.221,3.232c0.208,0.95,2.03,1.214,3.531,1.371v1.622H100.07v-1.622c1.445-0.157,3.33-0.421,3.545-1.371
	c0.213-1.005,0.213-1.812,0.213-3.232v-10.123c0-3.979-0.27-7.377-4.406-7.377c-3.267,0-5.95,1.594-5.95,10.804V116.169"/>
<path fill="#0D4689" d="M152.542,99.647h-7.066v14.644c0,3.669,1.521,5.119,3.485,5.119c1.245,0,2.386-0.213,3.36-0.599l0.553,1.46
	c-2.512,1.557-5.598,2.738-8.045,2.738c-2.621,0-6.48-1.554-6.48-6.662v-16.7h-4.135V97.16h4.353l-0.213-5.956l7.122-3.738v9.694
	h7.066V99.647"/>
<path fill="#0D4689" d="M197.647,100.781c0.851-1.282,3.714-5.826,9.824-4.416l-2.074,6.446c-2.217-1.291-7.604-1.873-7.745,2.828
	l-0.109,3.107v7.417c0,1.421,0,2.216,0.208,3.228c0.213,0.944,2.03,1.207,4.44,1.364v1.628h-15.949v-1.628
	c1.87-0.157,3.737-0.42,3.964-1.364c0.213-1.012,0.213-1.807,0.213-3.228v-13.973c0-2.669-1.402-3.044-4.177-3.044V97.52
	c3.637-0.054,8.303-0.687,11.2-2.272l0.101,0.106v5.428H197.647"/>
<path fill="#0D4689" d="M171.95,106.695c-5.366,1.687-9.126,2.978-9.126,7.938c0,2.39,1.229,4.354,3.647,4.354
	c3.11,0,5.479-2.501,5.479-7.415V106.695 M161.366,103.423l-4.728-1.441c1.373-3.69,4.443-6.766,11.663-6.724
	c7.662,0.04,10.77,3.438,10.77,9.317l-0.023,10.796c0,3.28,0.974,4.039,1.788,4.251c0.822,0.216,1.91,0.267,2.674,0.157l0.215,1.623
	c-1.904,0.804-4.948,1.607-7.449,1.607c-2.396,0-3.262-1.399-4.025-3.172c-0.167-0.489-0.194-0.489-0.263-0.745
	c-3.185,3.158-6.864,3.938-9.535,3.938c-3.752,0-6.75-2.924-6.75-7.403c0-5.071,3.315-6.71,8.508-8.572l7.682-2.533
	c0-4.339-1.389-7.398-4.499-7.414C163.705,97.089,161.981,102.186,161.366,103.423z"/>
</svg>
